<svg width="512" height="512" viewBox="0 0 120 120" fill="none" xmlns="http://www.w3.org/2000/svg">
  <defs>
    <linearGradient id="ps-gradient-main" x1="0%" y1="0%" x2="100%" y2="100%">
      <stop offset="0%" stop-color="#06b6d4" stop-opacity="1" />
      <stop offset="50%" stop-color="#0ea5e9" stop-opacity="1" />
      <stop offset="100%" stop-color="#2563eb" stop-opacity="1" />
    </linearGradient>
    <linearGradient id="ps-gradient-accent" x1="0%" y1="100%" x2="100%" y2="0%">
      <stop offset="0%" stop-color="#f97316" />
      <stop offset="100%" stop-color="#fb923c" />
    </linearGradient>
    <pattern id="ps-tiles" x="0" y="0" width="12" height="12" patternUnits="userSpaceOnUse">
      <rect width="11" height="11" fill="none" stroke="rgba(0,0,0,0.08)" stroke-width="0.5"/>
    </pattern>
  </defs>
  
  <rect x="10" y="10" width="100" height="100" rx="20" fill="url(#ps-gradient-main)"/>
  <rect x="10" y="10" width="100" height="100" rx="20" fill="url(#ps-tiles)"/>
  <rect x="20" y="25" width="80" height="70" rx="4" fill="none" stroke="rgba(0,0,0,0.15)" stroke-width="1.5"/>
  
  <path d="M 35 45 L 35 85 M 35 45 L 55 45 C 62 45 65 48 65 55 C 65 62 62 65 55 65 L 35 65"
    stroke="#000000" stroke-width="6" stroke-linecap="round" stroke-linejoin="round" fill="none" opacity="0.95"/>
  
  <path d="M 70 50 C 75 47 83 47 88 50 C 91 52 91 56 88 58 C 85 60 80 61 78 61 M 78 61 C 76 61 71 62 68 64 C 65 66 65 71 68 73 C 71 75 79 76 85 73"
    stroke="url(#ps-gradient-accent)" stroke-width="6" stroke-linecap="round" stroke-linejoin="round" fill="none" opacity="0.95"/>
  
  <circle cx="60" cy="65" r="12" fill="none" stroke="rgba(0,0,0,0.1)" stroke-width="1.5"/>
  <circle cx="25" cy="30" r="2" fill="rgba(0,0,0,0.2)"/>
  <circle cx="95" cy="30" r="2" fill="url(#ps-gradient-accent)" opacity="0.6"/>
  <circle cx="25" cy="90" r="2" fill="url(#ps-gradient-accent)" opacity="0.6"/>
  <circle cx="95" cy="90" r="2" fill="rgba(0,0,0,0.2)"/>
  <line x1="60" y1="25" x2="60" y2="35" stroke="rgba(0,0,0,0.15)" stroke-width="2" stroke-linecap="round"/>
  <line x1="60" y1="85" x2="60" y2="95" stroke="rgba(0,0,0,0.15)" stroke-width="2" stroke-linecap="round"/>
</svg>

