<svg width="1200" height="630" viewBox="0 0 1200 630" fill="none" xmlns="http://www.w3.org/2000/svg">
  <defs>
    <linearGradient id="bg-gradient" x1="0%" y1="0%" x2="100%" y2="100%">
      <stop offset="0%" stop-color="#0a0a0b" />
      <stop offset="50%" stop-color="#1a1a2e" />
      <stop offset="100%" stop-color="#0a0a0b" />
    </linearGradient>
    <linearGradient id="logo-gradient" x1="0%" y1="0%" x2="100%" y2="100%">
      <stop offset="0%" stop-color="#06b6d4" />
      <stop offset="50%" stop-color="#0ea5e9" />
      <stop offset="100%" stop-color="#2563eb" />
    </linearGradient>
    <linearGradient id="accent-gradient" x1="0%" y1="100%" x2="100%" y2="0%">
      <stop offset="0%" stop-color="#f97316" />
      <stop offset="100%" stop-color="#fb923c" />
    </linearGradient>
    <pattern id="tile-pattern" x="0" y="0" width="40" height="40" patternUnits="userSpaceOnUse">
      <rect width="39" height="39" fill="none" stroke="rgba(6, 182, 212, 0.1)" stroke-width="1"/>
    </pattern>
  </defs>
  
  <!-- Background -->
  <rect width="1200" height="630" fill="url(#bg-gradient)"/>
  <rect width="1200" height="630" fill="url(#tile-pattern)"/>
  
  <!-- Logo -->
  <g transform="translate(100, 150)">
    <rect x="0" y="0" width="300" height="300" rx="60" fill="url(#logo-gradient)"/>
    <pattern id="tiles-sm" x="0" y="0" width="30" height="30" patternUnits="userSpaceOnUse">
      <rect width="29" height="29" fill="none" stroke="rgba(0,0,0,0.08)" stroke-width="1"/>
    </pattern>
    <rect x="0" y="0" width="300" height="300" rx="60" fill="url(#tiles-sm)"/>
    <rect x="30" y="50" width="240" height="200" rx="12" fill="none" stroke="rgba(0,0,0,0.15)" stroke-width="4"/>
    
    <!-- P -->
    <path d="M 90 120 L 90 230 M 90 120 L 150 120 C 170 120 175 130 175 145 C 175 160 170 170 150 170 L 90 170"
      stroke="#000000" stroke-width="18" stroke-linecap="round" stroke-linejoin="round" fill="none" opacity="0.95"/>
    
    <!-- S -->
    <path d="M 185 135 C 195 130 215 130 225 135 C 230 138 230 145 225 150 C 220 153 210 155 205 155 M 205 155 C 200 155 190 157 185 160 C 180 165 180 173 185 178 C 190 183 210 185 225 180"
      stroke="url(#accent-gradient)" stroke-width="18" stroke-linecap="round" stroke-linejoin="round" fill="none" opacity="0.95"/>
    
    <circle cx="150" cy="165" r="35" fill="none" stroke="rgba(0,0,0,0.1)" stroke-width="4"/>
  </g>
  
  <!-- Text -->
  <text x="500" y="250" font-family="system-ui, -apple-system, sans-serif" font-size="80" font-weight="900" fill="#ffffff">
    PlaySport Courts
  </text>
  <text x="500" y="340" font-family="system-ui, -apple-system, sans-serif" font-size="48" font-weight="300" fill="rgba(255,255,255,0.7)">
    Premium 12" × 12" Modular Court Tiles
  </text>
  <text x="500" y="420" font-family="system-ui, -apple-system, sans-serif" font-size="36" font-weight="600" fill="url(#logo-gradient)">
    Interactive 3D Court Design Tools
  </text>
</svg>

